<svg xmlns="http://www.w3.org/2000/svg" width="713.24" height="511.705" viewBox="0 0 713.24 511.705"><defs><style>.a{opacity:0.25;}.b{fill:none;stroke:#8bd1e2;stroke-linecap:round;stroke-linejoin:round;stroke-width:3px;}</style></defs><g class="a" transform="translate(-64.877 -50.969)"><g transform="translate(66.714 328.955)"><g transform="translate(0 26.612)"><path class="b" d="M72.581,209.592a402.578,402.578,0,0,1,91.265,85.979M69.325,143.914q116.035,47.372,193.6,143.7l6.52,7.961m-202.734-205q188.4,50.548,301.5,205" transform="translate(-66.714 -90.575)"/></g><g transform="translate(132.152)"><path class="b" d="M622.878,174.945c-153.464,10.612-305.312,62.486-394.562,112.9M644.643,131.16C458.165,129.3,295.036,158.482,164.07,217.13m496.9-124.979c-237.635-15.389-422.02,4.18-577.657,75.032" transform="translate(-83.314 -87.232)"/></g></g><g transform="translate(172.094 139.053)"><path class="b" d="M130.5,321.712v-39.8q-46.572-5.971-50.552-65.678,3.582-80.8,50.552-152.851,47.372,72.055,50.95,152.851-3.977,59.707-50.95,65.678" transform="translate(-79.951 -63.378)"/></g><g transform="translate(72.581 167.513)"><path class="b" d="M106.858,268.366V237.318q-36.219-3.977-39.407-50.95,2.782-63.684,39.407-119.415,37.019,55.731,39.407,119.415-2.782,46.978-39.407,50.95" transform="translate(-67.451 -66.953)"/></g><path class="b" d="M322.4,355.161v-129.3l82-85.183H576.355V73.8q54.131-42.6,113.842,0v255.15m-617.772,0M322.4,355.161l47.766-9.251v-89.8h66.076v80.732l50.154-4.387v-106.6l-82-85.183m117.026,0L576.355,198V140.677m0,188.277V198m-35.028,27.863-82-85.183M690.2,328.954m-253.955,0-66.076,0" transform="translate(39.754 0)"/></g></svg>