<?xml version="1.0" encoding="utf-8"?>
<!-- Generator: Adobe Illustrator 24.0.0, SVG Export Plug-In . SVG Version: 6.00 Build 0)  -->
<svg version="1.1" id="Warstwa_1" xmlns="http://www.w3.org/2000/svg" xmlns:xlink="http://www.w3.org/1999/xlink" x="0px" y="0px"
	 viewBox="0 0 18 17.6" style="enable-background:new 0 0 18 17.6;" xml:space="preserve">
<g id="Group_2614" transform="translate(-303 -303.714)">
	<g id="Group_2614-2">
		<rect id="Rectangle_1409" x="303.4" y="308.9" width="17.1" height="0.9"/>
	</g>
	<path id="Path_1153" d="M308.6,308h-3v-1.3h0.9v0.4h1.3v-0.4h0.9V308z"/>
	<path id="Path_1154" d="M318.4,308h-3v-1.3h0.9v0.4h1.3v-0.4h0.9V308z"/>
	<path id="Path_1155" d="M319.7,321.3h-15.4c-0.7,0-1.3-0.6-1.3-1.3v-13.3c0-0.7,0.6-1.3,1.3-1.3h1.3v-0.9c0-0.5,0.4-0.9,0.9-0.9
		h1.3c0.5,0,0.9,0.4,0.9,0.9v0.9h6.9v-0.9c0-0.5,0.4-0.9,0.9-0.9h1.3c0.5,0,0.9,0.4,0.9,0.9v0.9h1.3c0.7,0,1.3,0.6,1.3,1.3V320
		C321,320.7,320.4,321.3,319.7,321.3z M304.3,306.3c-0.2,0-0.4,0.2-0.4,0.4V320c0,0.2,0.2,0.4,0.4,0.4h15.4c0.2,0,0.4-0.2,0.4-0.4
		v-13.3c0-0.2-0.2-0.4-0.4-0.4h-2.1v-1.7h-1.3v1.7h-8.6v-1.7h-1.3v1.7L304.3,306.3z"/>
	<rect id="Rectangle_1410" x="309.4" y="312.3" width="1.7" height="0.9"/>
	<rect id="Rectangle_1411" x="312.9" y="312.3" width="1.7" height="0.9"/>
	<rect id="Rectangle_1412" x="316.3" y="312.3" width="1.7" height="0.9"/>
	<rect id="Rectangle_1413" x="306" y="314.4" width="1.7" height="0.9"/>
	<rect id="Rectangle_1414" x="309.4" y="314.4" width="1.7" height="0.9"/>
	<rect id="Rectangle_1415" x="312.9" y="314.4" width="1.7" height="0.9"/>
	<rect id="Rectangle_1416" x="316.3" y="314.4" width="1.7" height="0.9"/>
	<rect id="Rectangle_1417" x="306" y="316.6" width="1.7" height="0.9"/>
	<rect id="Rectangle_1418" x="309.4" y="316.6" width="1.7" height="0.9"/>
	<rect id="Rectangle_1419" x="312.9" y="316.6" width="1.7" height="0.9"/>
</g>
</svg>
