<?xml version="1.0" encoding="utf-8"?>
<!-- Generator: Adobe Illustrator 24.0.0, SVG Export Plug-In . SVG Version: 6.00 Build 0)  -->
<svg version="1.1" id="Warstwa_1" xmlns="http://www.w3.org/2000/svg" xmlns:xlink="http://www.w3.org/1999/xlink" x="0px" y="0px"
	 viewBox="0 0 19.2 19.2" style="enable-background:new 0 0 19.2 19.2;" xml:space="preserve">
<g>
	<path d="M9.6,0C4.3,0,0,4.3,0,9.6s4.3,9.6,9.6,9.6s9.6-4.3,9.6-9.6S14.9,0,9.6,0z M9.6,18C5,18,1.2,14.2,1.2,9.6
		C1.2,5,5,1.2,9.6,1.2C14.2,1.2,18,5,18,9.6C18,14.2,14.2,18,9.6,18z"/>
	<path d="M13.9,5.5l-4.9,6.9L5.2,9.6C4.9,9.5,4.6,9.5,4.4,9.8c-0.2,0.3-0.1,0.6,0.1,0.8l4.2,3.2c0,0,0,0,0,0c0,0,0,0,0,0
		c0,0,0.1,0,0.1,0.1c0,0,0,0,0,0c0.1,0,0.1,0,0.2,0c0.1,0,0.1,0,0.2,0c0,0,0.1,0,0.1,0c0,0,0.1-0.1,0.1-0.1c0,0,0.1,0,0.1-0.1
		c0,0,0,0,0,0c0,0,0,0,0,0l5.3-7.4C15,6,15,5.6,14.7,5.4C14.4,5.2,14.1,5.3,13.9,5.5z"/>
</g>
</svg>
