<?xml version="1.0" encoding="utf-8"?>
<!-- Generator: Adobe Illustrator 24.0.0, SVG Export Plug-In . SVG Version: 6.00 Build 0)  -->
<svg version="1.1" id="Group_2471" xmlns="http://www.w3.org/2000/svg" xmlns:xlink="http://www.w3.org/1999/xlink" x="0px" y="0px"
	 viewBox="0 0 75.8 75.8" style="enable-background:new 0 0 75.8 75.8;" xml:space="preserve">
<g id="Group_2470">
	<path id="Path_1101" d="M37.9,0C17,0,0,17,0,37.9s17,37.9,37.9,37.9c20.9,0,37.9-17,37.9-37.9C75.8,17,58.8,0,37.9,0z M53,39.2
		L30.9,53.4c-0.3,0.2-0.6,0.2-0.9,0.3c-0.3,0-0.5-0.1-0.8-0.2c-0.5-0.3-0.8-0.8-0.8-1.4V23.7c0-0.9,0.7-1.6,1.6-1.6
		c0.3,0,0.6,0.1,0.9,0.3L53,36.6c0.5,0.3,0.7,0.8,0.7,1.3C53.7,38.4,53.4,38.9,53,39.2z"/>
</g>
</svg>
