<?xml version="1.0" encoding="utf-8"?>
<!-- Generator: Adobe Illustrator 24.0.0, SVG Export Plug-In . SVG Version: 6.00 Build 0)  -->
<svg version="1.1" id="Warstwa_1" xmlns="http://www.w3.org/2000/svg" xmlns:xlink="http://www.w3.org/1999/xlink" x="0px" y="0px"
	 viewBox="0 0 28.3 39.2" style="enable-background:new 0 0 28.3 39.2;" xml:space="preserve">
<g>
	<path d="M16.3,12L16.3,12c0.7-0.5,0.9-1.4,0.4-2.1c-0.5-0.7-1.4-0.8-2-0.4c-5,3.3-8.5,9.3-10,17.3c-0.7,3.6-1,7.3-0.8,11
		c0.1,0.8,0.7,1.4,1.5,1.4h0.1l0,0c0.8-0.1,1.5-0.8,1.4-1.6C6.9,37.4,5.8,19,16.3,12z"/>
	<path d="M27.8,0.6c-0.2-0.2-0.5-0.3-0.8-0.3C26.3,0.2,10.5-1.6,3.6,6.5c-3,3.5-4.2,8-3.3,12.4c0.3,2.1,1,4.2,2,6.1l0,0
		c0.4,0.7,1.4,0.9,2.1,0.5c0.7-0.4,0.9-1.3,0.5-2c0-0.1-4.7-8.5,0.9-15.1c4.3-5,13.6-5.5,18.2-5.4c-1,1.6-1.8,3.7-1.4,5.4
		c0.3,1.1,1,8.3-2.6,12.9c-1.9,2.5-4.9,3.8-8.8,3.8c-0.8,0-1.5,0.7-1.5,1.5s0.7,1.5,1.5,1.5c4.8,0,8.6-1.7,11.1-4.9
		c4.4-5.6,3.5-14,3.1-15.5c-0.2-1,1-3.4,2.4-5.1C28.5,2.1,28.4,1.1,27.8,0.6z"/>
</g>
</svg>
