<?xml version="1.0" encoding="utf-8"?>
<!-- Generator: Adobe Illustrator 24.0.0, SVG Export Plug-In . SVG Version: 6.00 Build 0)  -->
<svg version="1.1" id="Warstwa_1" xmlns="http://www.w3.org/2000/svg" xmlns:xlink="http://www.w3.org/1999/xlink" x="0px" y="0px"
	 viewBox="0 0 22.9 21.8" style="enable-background:new 0 0 22.9 21.8;" xml:space="preserve">
<path id="Path_1163" d="M22.3,0l0.6,0.8C20,3.2,17.3,6,15.1,9c-2.6,3.2-4.8,6.7-6.6,10.3l-1.2,0.8c-0.7,0.5-1.4,1-2.1,1.6
	c-0.3-0.9-0.6-1.7-0.9-2.5l-0.5-1.1c-0.5-1.2-1.1-2.4-1.8-3.4c-0.5-0.7-1.1-1.2-1.9-1.5c0.8-1,2-1.7,3.3-1.9c0.8,0,1.8,1.2,2.8,3.5
	L6.6,16c2-3.3,4.4-6.4,7.2-9.2C16.3,4.2,19.2,1.9,22.3,0z"/>
</svg>
