<?xml version="1.0" encoding="utf-8"?>
<!-- Generator: Adobe Illustrator 24.0.0, SVG Export Plug-In . SVG Version: 6.00 Build 0)  -->
<svg version="1.1" id="Warstwa_1" xmlns="http://www.w3.org/2000/svg" xmlns:xlink="http://www.w3.org/1999/xlink" x="0px" y="0px"
	 viewBox="0 0 40.5 38.9" style="enable-background:new 0 0 40.5 38.9;" xml:space="preserve">
<path d="M39.9,28.6c-2.7-2.5-5.8-4.5-9.2-5.9l-0.9-0.4L26,25.9c-1.3-0.5-4-1.8-7.4-5c-3.2-3.1-4.6-5.7-5.1-6.9l3.7-3.6l-0.4-1
	c-1.5-3.3-3.6-6.3-6.2-8.8L10.1,0L9.2,0.2c-3,0.7-5.9,2-8.5,3.7L0,4.4l0,0.9c0.1,1.8,1.2,11.5,12.2,22c11,10.5,21,11.5,22.9,11.6
	l0.8,0l0.5-0.7c1.8-2.5,3.1-5.2,3.9-8.2l0.2-0.9L39.9,28.6z M34.5,35.8c-2.7-0.3-11.1-2-20.2-10.7C5.3,16.5,3.5,8.6,3.1,5.9
	c1.9-1.1,3.9-2,6-2.6c1.8,1.9,3.3,4.1,4.5,6.4l-3.5,3.4l0.2,0.9c0.2,0.7,1.4,4.5,6.3,9.1c4.8,4.6,8.7,5.8,9.4,6l0.8,0.2l3.5-3.4
	c2.4,1.1,4.7,2.6,6.8,4.3C36.5,32.2,35.6,34.1,34.5,35.8z"/>
</svg>
