<?xml version="1.0" encoding="utf-8"?>
<!-- Generator: Adobe Illustrator 24.0.0, SVG Export Plug-In . SVG Version: 6.00 Build 0)  -->
<svg version="1.1" id="Warstwa_1" xmlns="http://www.w3.org/2000/svg" xmlns:xlink="http://www.w3.org/1999/xlink" x="0px" y="0px"
	 viewBox="0 0 20 25" style="enable-background:new 0 0 20 25;" xml:space="preserve">
<g>
	<path d="M19.4,0H3.1C3,0,2.8,0.1,2.7,0.2L0.2,2.7C0.1,2.8,0,3,0,3.1v21.2C0,24.7,0.3,25,0.6,25h18.8c0.3,0,0.6-0.3,0.6-0.6V0.6
		C20,0.3,19.7,0,19.4,0z M18.8,23.8H1.2V3.4l2.1-2.1h15.4V23.8z"/>
	<path d="M1.9,4.3C1.9,4.7,2.2,5,2.5,5l1.9,0C4.8,5,5,4.7,5,4.3l0-1.9c0-0.3-0.3-0.6-0.6-0.6c-0.3,0-0.6,0.3-0.6,0.6v1.2H2.5
		C2.2,3.7,1.9,4,1.9,4.3z"/>
	<path d="M5.6,11.2H15c0.3,0,0.6-0.3,0.6-0.6S15.3,10,15,10H5.6C5.3,10,5,10.3,5,10.6S5.3,11.2,5.6,11.2z"/>
	<path d="M15,12.5H5.6c-0.3,0-0.6,0.3-0.6,0.6s0.3,0.6,0.6,0.6H15c0.3,0,0.6-0.3,0.6-0.6S15.3,12.5,15,12.5z"/>
	<path d="M11.9,15H5.6C5.3,15,5,15.3,5,15.6s0.3,0.6,0.6,0.6h6.2c0.3,0,0.6-0.3,0.6-0.6S12.2,15,11.9,15z"/>
</g>
</svg>
