<?xml version="1.0" encoding="utf-8"?>
<!-- Generator: Adobe Illustrator 24.0.0, SVG Export Plug-In . SVG Version: 6.00 Build 0)  -->
<svg version="1.1" id="Warstwa_1" xmlns="http://www.w3.org/2000/svg" xmlns:xlink="http://www.w3.org/1999/xlink" x="0px" y="0px"
	 viewBox="0 0 29 31" style="enable-background:new 0 0 29 31;" xml:space="preserve">
<g id="Group_2562" transform="translate(1.5 1.5)">
	<path d="M13,14.4c-4.4,0-7.9-3.6-7.9-7.9S8.6-1.5,13-1.5s7.9,3.6,7.9,7.9S17.4,14.4,13,14.4z M13,1.5c-2.7,0-4.9,2.2-4.9,4.9
		c0,2.7,2.2,4.9,4.9,4.9c2.7,0,4.9-2.2,4.9-4.9C17.9,3.7,15.7,1.5,13,1.5z"/>
	<path d="M2.3,29.5c-2.1,0-3.8-1.7-3.8-3.8v-2.2c0-10.4,10.9-10.4,14.5-10.4c3.6,0,14.5,0,14.5,10.4v2.2c0,2.1-1.7,3.8-3.8,3.8H2.3z
		 M13,16.1c-8.1,0-11.5,2.2-11.5,7.4v2.2c0,0.4,0.4,0.8,0.8,0.8h21.5c0.4,0,0.8-0.4,0.8-0.8v-2.2C24.5,18.4,21.1,16.1,13,16.1z"/>
</g>
</svg>
