<?xml version="1.0" encoding="utf-8"?>
<!-- Generator: Adobe Illustrator 24.0.0, SVG Export Plug-In . SVG Version: 6.00 Build 0)  -->
<svg version="1.1" id="Warstwa_1" xmlns="http://www.w3.org/2000/svg" xmlns:xlink="http://www.w3.org/1999/xlink" x="0px" y="0px"
	 viewBox="0 0 11.1 11.1" style="enable-background:new 0 0 11.1 11.1;" xml:space="preserve">
<path d="M10.4,5.2c0-0.4-0.3-0.7-0.7-0.7l-3.2,0l0-3.2c0-0.4-0.3-0.7-0.7-0.7l-0.7,0C4.8,0.7,4.6,1,4.5,1.3l0,3.2l-3.2,0
	C1,4.6,0.7,4.8,0.7,5.2v0.7c0,0.2,0.1,0.3,0.2,0.5s0.3,0.2,0.5,0.2l3.2,0v3.2c0,0.4,0.3,0.7,0.7,0.7h0.7c0,0,0,0,0,0
	c0.4,0,0.7-0.3,0.7-0.7l0-3.2h3.2c0,0,0,0,0,0c0.4,0,0.7-0.3,0.7-0.7L10.4,5.2z"/>
</svg>
