<?xml version="1.0" encoding="utf-8"?>
<!-- Generator: Adobe Illustrator 24.0.0, SVG Export Plug-In . SVG Version: 6.00 Build 0)  -->
<svg version="1.1" id="Warstwa_1" xmlns="http://www.w3.org/2000/svg" xmlns:xlink="http://www.w3.org/1999/xlink" x="0px" y="0px"
	 viewBox="0 0 19.8 13.8" style="enable-background:new 0 0 19.8 13.8;" xml:space="preserve">
<path d="M19.4,2.2c-0.2-0.8-0.9-1.5-1.7-1.7C16.1,0,9.9,0,9.9,0S3.7,0,2.1,0.4C1.3,0.7,0.6,1.3,0.4,2.2C0.1,3.7,0,5.3,0,6.9
	c0,1.6,0.1,3.2,0.4,4.8c0.2,0.8,0.9,1.5,1.7,1.7c1.6,0.4,7.7,0.4,7.7,0.4s6.2,0,7.7-0.4c0.8-0.2,1.5-0.9,1.7-1.7
	c0.3-1.6,0.4-3.2,0.4-4.8C19.8,5.3,19.7,3.7,19.4,2.2z M7.9,9.9V4l5.1,3L7.9,9.9z"/>
</svg>
