<?xml version="1.0" encoding="utf-8"?>
<!-- Generator: Adobe Illustrator 24.0.0, SVG Export Plug-In . SVG Version: 6.00 Build 0)  -->
<svg version="1.1" id="Group_2459" xmlns="http://www.w3.org/2000/svg" xmlns:xlink="http://www.w3.org/1999/xlink" x="0px" y="0px"
	 viewBox="0 0 39.2 47.3" style="enable-background:new 0 0 39.2 47.3;" xml:space="preserve">
<style type="text/css">
	.st0{fill:#C22D15;}
</style>
<g>
	<path class="st0" d="M16.5,41.8L16.5,41.8c-1.5-0.2-2.9,0.9-3.1,2.4c-0.1,1.1,0.4,2.3,1.5,2.8c0.3,0.1,0.6,0.2,0.9,0.3h0.7
		c0.1,0,0.3-0.1,0.4-0.1c1.5-0.4,2.3-1.9,2-3.4C18.6,42.7,17.6,41.9,16.5,41.8z"/>
	<path class="st0" d="M29.5,41.8c-1.5-0.2-2.9,0.9-3.1,2.4c-0.1,1.1,0.4,2.3,1.5,2.8c0.3,0.1,0.6,0.2,0.9,0.3h0.7l0.3-0.1
		c1.3-0.3,2.2-1.5,2.1-2.9C31.8,43,30.8,42,29.5,41.8z"/>
	<path class="st0" d="M36.2,22.5H11c-0.4,0-0.6-0.1-0.7-0.5c-1-4.1-2.1-8.2-3.1-12.3C7.1,8.9,6.4,8.4,5.7,8.4H1.5
		C0.8,8.4,0.1,9,0,9.7s0.5,1.5,1.3,1.5c0.1,0,0.1,0,0.2,0h2.3c0.2,0,0.4,0.1,0.5,0.3c0,0,0,0,0,0c2.2,8.7,4.3,17.4,6.5,26.2
		c0.3,1.1,0.7,1.5,1.8,1.5h19.7c0.9,0.1,1.7-0.5,1.9-1.4c1.3-3.9,2.5-7.8,3.8-11.7c0.4-1.2,0.8-2.5,1.2-3.7
		C38.2,22.5,37.2,22.5,36.2,22.5z M12.5,29.4c-0.3,0-0.5-0.1-0.5-0.4c-0.3-1.2-0.6-2.4-0.9-3.7h5.8c0.1,1.3,0.2,2.7,0.3,4
		c-0.2,0-0.3,0-0.4,0C15.3,29.4,14,29.4,12.5,29.4z M17,36.4h-2.8c-0.1,0-0.3-0.1-0.4-0.2c-0.3-1.3-0.7-2.6-1-3.9H17
		c0.2,0,0.4,0.2,0.4,0.2c0.1,1.3,0.2,2.5,0.2,3.8C17.4,36.4,17.2,36.4,17,36.4z M24.6,36.4h-2.9c-1.2,0-1.2,0-1.3-1.2
		c0-0.7-0.1-1.4-0.2-2.1v-0.8H25C24.9,33.7,24.7,35,24.6,36.4z M25.3,29.4h-5.3c-0.1-1.3-0.2-2.7-0.3-4.1h6
		C25.6,26.7,25.5,28,25.3,29.4L25.3,29.4z M31.4,36.2L31.4,36.2c-0.1,0.1-0.2,0.2-0.3,0.2h-3.5c0,0,0,0-0.1-0.1
		c0.2-1.3,0.3-2.7,0.4-4h4.7C32.2,33.7,31.8,34.9,31.4,36.2z M33.8,28.7L33.8,28.7c-0.3,0.9,0,0.8-1,0.8h-4.5
		c0.2-1.4,0.3-2.7,0.4-4.1h6.2C34.5,26.5,34.1,27.5,33.8,28.7z"/>
	<path class="st0" d="M16.2,19.8c1.9,0.8,4,1.1,6.1,0.8c0.6-0.1,1.2-0.1,1.8-0.1c1.8,0.3,3.7,0.2,5.5-0.3c2.7-0.6,4.7-2.8,5.3-5.5
		c-2.2-0.6-4.6-0.4-6.7,0.5c-2.1,1-3.7,2.8-4.6,4.9c-0.9-2.1-2.5-3.9-4.6-4.9c-2.1-0.9-4.5-1.1-6.7-0.5C12.7,17,14.2,18.9,16.2,19.8
		z"/>
	<path class="st0" d="M16.4,13.1c2.5,2.1,5.7,3,8.9,2.5c1.9-0.3,3.7-1,5.2-2.1c1.8-1.4,2.7-3.6,2.5-5.8c-2.2-0.1-4.3,0.6-6.1,1.9
		c-1.7,1.3-2.9,3.3-3.2,5.4c-0.4-2.1-1.6-4.1-3.3-5.4c-1.8-1.3-3.9-1.9-6.1-1.8C14,9.7,14.8,11.7,16.4,13.1z"/>
	<path class="st0" d="M23.4,10.2c0.1,0,0.3,0,0.4,0c0.7-0.3,1.5-0.6,2.2-1c1.6-0.8,3-2,4-3.5c1-1.7,1.1-3.8,0.3-5.6
		c-3.4,1-5.9,2.8-6.8,6.5C22.7,2.8,20.2,1,16.8,0c0,0.1-0.1,0.1-0.1,0.2c-0.8,2.2-0.4,4.7,1.2,6.5C19.4,8.3,21.3,9.5,23.4,10.2z"/>
</g>
</svg>
