<?xml version="1.0" encoding="utf-8"?>
<!-- Generator: Adobe Illustrator 24.0.0, SVG Export Plug-In . SVG Version: 6.00 Build 0)  -->
<svg version="1.1" id="Warstwa_1" xmlns="http://www.w3.org/2000/svg" xmlns:xlink="http://www.w3.org/1999/xlink" x="0px" y="0px"
	 viewBox="0 0 20.6 24.8" style="enable-background:new 0 0 20.6 24.8;" xml:space="preserve">
<g>
	<path d="M16.1,20.8c0.3,0,0.5-0.2,0.5-0.5V0.5c0,0,0,0,0,0c0-0.3-0.2-0.5-0.5-0.5H2.6C2.5,0,2.3,0.1,2.2,0.1L0.2,2.2
		C0.1,2.3,0,2.5,0,2.6v17.7c0,0.3,0.2,0.5,0.5,0.5H16.1C16.1,20.8,16.1,20.8,16.1,20.8z M15.6,19.8H1V2.8L2.8,1h12.8V19.8z"/>
	<path d="M20.2,3.2L17.9,3c0,0,0,0,0,0c-0.3,0-0.5,0.2-0.6,0.5c0,0.3,0.2,0.5,0.5,0.6l1.8,0.2l-1.9,19.5L2.9,22.3l0-0.3
		c0-0.3-0.2-0.5-0.5-0.6c-0.3,0-0.5,0.2-0.6,0.5l-0.1,0.8c0,0.3,0.2,0.5,0.5,0.6l15.8,1.5h0.1c0.3,0,0.5-0.2,0.5-0.5l2-20.6
		C20.7,3.5,20.4,3.2,20.2,3.2z"/>
	<path d="M1.6,3.6c0,0.3,0.2,0.5,0.5,0.5l1.6,0c0.3,0,0.5-0.2,0.5-0.5l0-1.6c0-0.3-0.2-0.5-0.5-0.5c0,0,0,0,0,0
		C3.4,1.5,3.1,1.8,3.1,2v1h-1C1.8,3.1,1.6,3.3,1.6,3.6z"/>
	<path d="M4.7,9.4h7.8c0,0,0,0,0,0c0.3,0,0.5-0.3,0.5-0.5c0-0.3-0.3-0.5-0.5-0.5H4.7c0,0,0,0,0,0c-0.3,0-0.5,0.3-0.5,0.5
		C4.1,9.1,4.4,9.4,4.7,9.4z"/>
	<path d="M12.5,10.4H4.7c0,0,0,0,0,0c-0.3,0-0.5,0.3-0.5,0.5c0,0.3,0.3,0.5,0.5,0.5h7.8c0,0,0,0,0,0c0.3,0,0.5-0.3,0.5-0.5
		C13,10.6,12.8,10.4,12.5,10.4z"/>
	<path d="M9.9,12.5H4.7c-0.3,0-0.5,0.2-0.5,0.5s0.2,0.5,0.5,0.5h5.2c0.3,0,0.5-0.2,0.5-0.5S10.2,12.5,9.9,12.5z"/>
</g>
</svg>
