<?xml version="1.0" encoding="utf-8"?>
<!-- Generator: Adobe Illustrator 24.0.0, SVG Export Plug-In . SVG Version: 6.00 Build 0)  -->
<svg version="1.1" id="Warstwa_1" xmlns="http://www.w3.org/2000/svg" xmlns:xlink="http://www.w3.org/1999/xlink" x="0px" y="0px"
	 viewBox="0 0 22 22" style="enable-background:new 0 0 22 22;" xml:space="preserve">
<path d="M20.9,18.8l-3.7-3.7c1.1-1.6,1.8-3.5,1.8-5.6C19,4.3,14.7,0,9.5,0S0,4.3,0,9.5S4.3,19,9.5,19c2.1,0,4-0.7,5.6-1.8l3.7,3.7
	c0.3,0.3,0.7,0.4,1.1,0.4s0.8-0.1,1.1-0.4C21.5,20.3,21.5,19.4,20.9,18.8z M3,9.5C3,5.9,5.9,3,9.5,3S16,5.9,16,9.5
	c0,1.7-0.7,3.2-1.7,4.4C14.2,14,14.1,14,14,14s-0.1,0.1-0.1,0.2c-1.2,1.1-2.7,1.7-4.4,1.7C5.9,16,3,13.1,3,9.5z"/>
</svg>
