<svg xmlns="http://www.w3.org/2000/svg" width="775.443" height="604.337" viewBox="0 0 775.443 604.337"><defs><style>.a{opacity:0.25;}.b{fill:none;stroke:#8bd1e2;stroke-linecap:round;stroke-linejoin:round;stroke-width:3px;}</style></defs><g class="a" transform="translate(-68.385 -303.25)"><g transform="translate(70.5 573.079)"><path class="b" d="M555.579,331.512Q321.028,408.88,208.655,572.21M799.961,389.845Q685.144,513.264,663.033,659.4M728.12,367.74Q582.6,474.579,521.194,636.682M645.841,346.863q-178.681,93.946-276.925,262.8M442.6,326.6Q195.761,381.254,70.5,528" transform="translate(-70.5 -326.6)"/></g><g transform="translate(71.114 570.436)"><path class="b" d="M835.624,399.64Q558.079,279.3,70.55,356.658" transform="translate(-70.55 -326.385)"/></g><g transform="translate(228.918 371.065)"><path class="b" d="M83.4,506.638V372.167l49.736-62.017H327.168L376.9,372.167V506.638M83.4,372.167H376.9" transform="translate(-83.4 -310.15)"/></g><g transform="translate(607.771 304.75)"><path class="b" d="M173.81,587.815v-43.6q-55.262-6.134-59.56-71.841,4.292-88.419,59.56-167.628,55.87,79.209,60.174,167.628-4.918,65.707-60.174,71.841" transform="translate(-114.25 -304.75)"/></g><g transform="translate(757.593 406.064)"><path class="b" d="M168.818,529.75V496.594q-38.683-4.292-42.368-55.262Q129.526,373.174,168.818,313q39.918,60.18,42.368,128.331-3.077,50.97-42.368,55.262" transform="translate(-126.45 -313)"/></g></g></svg>